<svg width="20" height="21" viewBox="0 0 20 21" fill="none" xmlns="http://www.w3.org/2000/svg">
<path d="M16.67 0H14.77C12.59 0 11.44 1.15 11.44 3.33V5.23C11.44 7.41 12.59 8.56 14.77 8.56H16.67C18.85 8.56 20 7.41 20 5.23V3.33C20 1.15 18.85 0 16.67 0ZM5.24 11.43H3.34C1.15 11.43 0 12.58 0 14.76V16.66C0 18.85 1.15 20 3.33 20H5.23C7.41 20 8.56 18.85 8.56 16.67V14.77C8.57 12.58 7.42 11.43 5.24 11.43ZM4.29 8.58C4.85337 8.58 5.41123 8.46904 5.93171 8.25344C6.4522 8.03785 6.92513 7.72185 7.32349 7.32349C7.72185 6.92513 8.03785 6.4522 8.25344 5.93171C8.46904 5.41123 8.58 4.85337 8.58 4.29C8.58 3.72663 8.46904 3.16878 8.25344 2.64829C8.03785 2.1278 7.72185 1.65488 7.32349 1.25651C6.92513 0.858149 6.4522 0.542149 5.93171 0.326557C5.41123 0.110964 4.85337 -8.39488e-09 4.29 0C3.15222 1.69542e-08 2.06104 0.451981 1.25651 1.25651C0.451981 2.06104 0 3.15222 0 4.29C0 5.42778 0.451981 6.51896 1.25651 7.32349C2.06104 8.12802 3.15222 8.58 4.29 8.58ZM15.71 20.002C16.8478 20.002 17.939 19.55 18.7435 18.7455C19.548 17.941 20 16.8498 20 15.712C20 14.5742 19.548 13.483 18.7435 12.6785C17.939 11.874 16.8478 11.422 15.71 11.422C14.5722 11.422 13.481 11.874 12.6765 12.6785C11.872 13.483 11.42 14.5742 11.42 15.712C11.42 16.8498 11.872 17.941 12.6765 18.7455C13.481 19.55 14.5722 20.002 15.71 20.002Z" fill="#303030"/>
</svg>
