<svg width="33" height="33" viewBox="0 0 33 33" fill="none" xmlns="http://www.w3.org/2000/svg">
<path d="M26.7217 5.54675C26.9046 5.83275 26.5925 6.1655 26.2625 6.09125C25.6162 5.89875 24.9012 5.8025 24.1725 5.8025H19.635C19.5283 5.8025 19.423 5.77765 19.3275 5.72992C19.2321 5.68219 19.149 5.61288 19.085 5.5275L17.5037 3.42375C17.3099 3.14875 17.4927 2.75 17.8282 2.75H21.615C23.76 2.75 25.652 3.86375 26.7217 5.54675Z" fill="#D92D2D"/>
<path d="M27.6925 8.9925C27.0933 8.56011 26.4164 8.24732 25.6988 8.07125C25.2038 7.93375 24.695 7.865 24.1725 7.865H19.0575C18.26 7.865 18.205 7.79625 17.7788 7.2325L15.8537 4.675C14.96 3.47875 14.2587 2.75 12.0175 2.75H8.8275C5.4725 2.75 2.75 5.4725 2.75 8.8275V24.1725C2.75 27.5275 5.4725 30.25 8.8275 30.25H24.1725C27.5275 30.25 30.25 27.5275 30.25 24.1725V13.9425C30.25 11.8938 29.2462 10.0925 27.6925 8.9925ZM19.7863 22.4675H13.2C12.6638 22.4675 12.2512 22.0413 12.2512 21.505C12.2512 20.9825 12.6638 20.5425 13.2 20.5425H19.7863C20.3225 20.5425 20.7488 20.9825 20.7488 21.505C20.7488 22.0413 20.3225 22.4675 19.7863 22.4675Z" fill="#F45656"/>
</svg>
