<svg width="39" height="18" viewBox="0 0 39 18" fill="none" xmlns="http://www.w3.org/2000/svg">
<rect width="39" height="18" rx="5" fill="#FF317B"/>
<path d="M15.29 5H12.75V12H13.68V9.5H15.29C16.58 9.5 17.55 8.52 17.55 7.25C17.55 5.97 16.58 5 15.29 5ZM15.29 8.63H13.68V5.87H15.29C16.06 5.87 16.63 6.45 16.63 7.25C16.63 8.04 16.06 8.63 15.29 8.63ZM19.321 7.84V7H18.451V12H19.321V9.35C19.321 8.17 20.131 7.79 20.881 7.82V6.91C20.251 6.91 19.641 7.14 19.321 7.84ZM23.8088 12.13C25.2688 12.13 26.4488 10.98 26.4488 9.5C26.4488 8.02 25.2688 6.87 23.8088 6.87C22.3488 6.87 21.1788 8.02 21.1788 9.5C21.1788 10.98 22.3488 12.13 23.8088 12.13ZM23.8088 11.28C22.8188 11.28 22.0488 10.51 22.0488 9.5C22.0488 8.49 22.8188 7.72 23.8088 7.72C24.8088 7.72 25.5788 8.49 25.5788 9.5C25.5788 10.51 24.8088 11.28 23.8088 11.28Z" fill="white"/>
</svg>
